<svg width="288" height="228" viewBox="0 0 288 228" fill="none" xmlns="http://www.w3.org/2000/svg">
<ellipse cx="93" cy="70.8958" rx="93" ry="70.8958" fill="white"/>
<path d="M145.221 117.089L158.322 103.256L169.024 141.545L133.965 129.934L145.221 117.089Z" fill="white"/>
<mask id="path-3-inside-1" fill="white">
<path fill-rule="evenodd" clip-rule="evenodd" d="M91.8908 98.3309C93.8964 94.8571 97.8038 93.0609 101.802 92.7388C111.863 91.9281 121.274 86.4718 126.605 77.2379C135.343 62.1038 129.814 42.5533 114.255 33.5707C98.6967 24.588 79.0009 29.5747 70.2632 44.7088C64.8441 54.095 64.9128 65.1801 69.4583 74.3892C71.2652 78.0498 71.7142 82.4142 69.6731 85.9495L67.099 90.408C64.3376 95.1909 65.9764 101.307 70.7593 104.068L75.4633 106.784C80.2463 109.546 86.3622 107.907 89.1236 103.124L91.8908 98.3309Z"/>
</mask>
<path fill-rule="evenodd" clip-rule="evenodd" d="M91.8908 98.3309C93.8964 94.8571 97.8038 93.0609 101.802 92.7388C111.863 91.9281 121.274 86.4718 126.605 77.2379C135.343 62.1038 129.814 42.5533 114.255 33.5707C98.6967 24.588 79.0009 29.5747 70.2632 44.7088C64.8441 54.095 64.9128 65.1801 69.4583 74.3892C71.2652 78.0498 71.7142 82.4142 69.6731 85.9495L67.099 90.408C64.3376 95.1909 65.9764 101.307 70.7593 104.068L75.4633 106.784C80.2463 109.546 86.3622 107.907 89.1236 103.124L91.8908 98.3309Z" fill="#FFC700"/>
<path d="M123.141 75.2379C118.509 83.26 110.318 88.0397 101.481 88.7517L102.123 96.7258C113.409 95.8166 124.038 89.6835 130.069 79.2379L123.141 75.2379ZM112.255 37.0348C125.991 44.9653 130.722 62.1066 123.141 75.2379L130.069 79.2379C139.963 62.1009 133.636 40.1413 116.255 30.1066L112.255 37.0348ZM73.7273 46.7088C81.3087 33.5776 98.519 29.1042 112.255 37.0348L116.255 30.1066C98.8745 20.0718 76.6931 25.5719 66.7991 42.7088L73.7273 46.7088ZM73.0452 72.6187C69.0519 64.5284 69.0196 54.8628 73.7273 46.7088L66.7991 42.7088C60.6686 53.3273 60.7737 65.8317 65.8715 76.1596L73.0452 72.6187ZM70.5631 92.408L73.1372 87.9495L66.209 83.9495L63.6349 88.408L70.5631 92.408ZM77.4633 103.32L72.7593 100.604L68.7593 107.532L73.4633 110.248L77.4633 103.32ZM88.4267 96.3309L85.6595 101.124L92.5877 105.124L95.3549 100.331L88.4267 96.3309ZM63.6349 88.408C59.7689 95.1041 62.0632 103.666 68.7593 107.532L72.7593 100.604C69.8895 98.9473 68.9063 95.2777 70.5631 92.408L63.6349 88.408ZM65.8715 76.1596C67.2991 79.0518 67.3733 81.9329 66.209 83.9495L73.1372 87.9495C76.0552 82.8954 75.2313 77.0478 73.0452 72.6187L65.8715 76.1596ZM73.4633 110.248C80.1594 114.114 88.7217 111.82 92.5877 105.124L85.6595 101.124C84.0026 103.994 80.3331 104.977 77.4633 103.32L73.4633 110.248ZM101.481 88.7517C96.639 89.1418 91.2935 91.3654 88.4267 96.3309L95.3549 100.331C96.4992 98.3489 98.9685 96.98 102.123 96.7258L101.481 88.7517Z" fill="black" mask="url(#path-3-inside-1)"/>
<line x1="91.3567" y1="58.9523" x2="90.4154" y2="70.1647" stroke="black" stroke-width="4" stroke-linecap="round"/>
<line opacity="0.9" x1="84.7338" y1="85.4564" x2="86.7926" y2="81.8903" stroke="black" stroke-width="4" stroke-linecap="round"/>
<line opacity="0.9" x1="70.8133" y1="84.3418" x2="90.4978" y2="95.7066" stroke="black" stroke-width="5"/>
<line x1="2" y1="-2" x2="19.1062" y2="-2" transform="matrix(-0.83953 0.543314 0.543314 0.83953 107.584 67.6128)" stroke="black" stroke-width="4" stroke-linecap="round"/>
<path d="M72.4838 86.3184L90.0592 96.4656L87.1591 101.489C84.95 105.315 80.0573 106.626 76.2309 104.417L72.5119 102.27C68.6855 100.061 67.3745 95.1678 69.5837 91.3415L72.4838 86.3184Z" fill="#C2CDE7"/>
<line opacity="0.9" x1="68.5689" y1="91.106" x2="88.4113" y2="98.5397" stroke="black" stroke-width="3.5" stroke-linecap="round"/>
<line opacity="0.9" x1="72.8445" y1="98.2223" x2="85.9264" y2="102.782" stroke="black" stroke-width="3.5" stroke-linecap="round"/>
<mask id="path-12-inside-2" fill="white">
<path d="M70.3973 102.923L77.4275 106.982L76.4921 108.602C75.6637 110.037 73.8289 110.529 72.3941 109.7L70.56 108.641C69.1251 107.813 68.6335 105.978 69.4619 104.543L70.3973 102.923Z"/>
</mask>
<path d="M70.3973 102.923L77.4275 106.982L76.4921 108.602C75.6637 110.037 73.8289 110.529 72.3941 109.7L70.56 108.641C69.1251 107.813 68.6335 105.978 69.4619 104.543L70.3973 102.923Z" fill="#C4C4C4"/>
<path d="M70.3973 102.923L72.8973 98.5932L68.5672 96.0932L66.0672 100.423L70.3973 102.923ZM77.4275 106.982L81.7576 109.482L84.2576 105.152L79.9275 102.652L77.4275 106.982ZM67.8973 107.253L74.9275 111.312L79.9275 102.652L72.8973 98.5932L67.8973 107.253ZM73.0973 104.482L72.162 106.102L80.8223 111.102L81.7576 109.482L73.0973 104.482ZM74.8941 105.37L73.06 104.311L68.06 112.972L69.8941 114.03L74.8941 105.37ZM73.7921 107.043L74.7274 105.423L66.0672 100.423L65.1318 102.043L73.7921 107.043ZM73.06 104.311C74.0166 104.864 74.3444 106.087 73.7921 107.043L65.1318 102.043C62.9227 105.87 64.2337 110.762 68.06 112.972L73.06 104.311ZM72.162 106.102C72.7143 105.146 73.9375 104.818 74.8941 105.37L69.8941 114.03C73.7204 116.24 78.6131 114.929 80.8223 111.102L72.162 106.102Z" fill="black" mask="url(#path-12-inside-2)"/>
<rect x="72.1001" y="104.844" width="3.2471" height="1.62355" transform="rotate(30 72.1001 104.844)" fill="#C4C4C4"/>
<path d="M93.3433 32.1203C94.0157 31.9474 94.7065 31.8561 95.4007 31.8483L97.9811 31.8192C101.351 31.7813 104.701 32.3441 107.874 33.4811C110.952 34.5843 113.816 36.2111 116.34 38.2898L116.776 38.6485C119.032 40.5068 121.013 42.6765 122.658 45.0925L123.824 46.8043C124.586 47.923 125.197 49.1379 125.639 50.4172L126.505 52.9215C126.67 53.3975 126.727 53.9041 126.674 54.405C126.4 56.9756 123.487 58.3288 121.345 56.8802L120.876 56.5625C120.46 56.2812 120.105 55.9196 119.831 55.499L117.583 52.0501C116.4 50.2357 114.979 48.5886 113.358 47.1529L111.649 45.64C109.258 43.5225 106.476 41.8925 103.459 40.8416L101.623 40.2017C99.8385 39.5801 97.9507 39.3107 96.0638 39.4084L92.5776 39.589C91.8547 39.6264 91.1378 39.4406 90.5242 39.0566C88.7849 37.9685 88.3375 35.6314 89.5519 33.9779L89.5925 33.9226C90.0832 33.2545 90.79 32.7766 91.5929 32.5702L93.3433 32.1203Z" fill="white"/>
<path d="M115.524 49.3022L118.978 54.127" stroke="black" stroke-width="4" stroke-linecap="round"/>
<path d="M137.353 72.9956L144.287 75.952" stroke="black" stroke-width="4" stroke-linecap="round"/>
<path d="M128.925 87.7036L133.15 91.8696" stroke="black" stroke-width="4" stroke-linecap="round"/>
<path d="M146.53 56.8921L140.607 56.5386" stroke="black" stroke-width="4" stroke-linecap="round"/>
<path d="M68.6138 33.3076L62.5865 28.7809" stroke="black" stroke-width="4" stroke-linecap="round"/>
<path d="M60.0933 47.9624L54.3729 46.3863" stroke="black" stroke-width="4" stroke-linecap="round"/>
<path d="M77.9714 17.3091L81.2391 22.2619" stroke="black" stroke-width="4" stroke-linecap="round"/>
<path d="M96.7572 39.4047L98.3289 39.546C99.4185 39.644 100.498 39.8351 101.555 40.1173V40.1173C102.815 40.454 104.039 40.9188 105.205 41.5043L107.04 42.4257L109.503 44.1179" stroke="black" stroke-width="4" stroke-linecap="round"/>
<path d="M7.956 172.92L1.008 192H17.532C18.804 192 19.86 191.916 20.7 191.748C21.564 191.556 22.296 191.28 22.896 190.92C23.496 190.536 23.988 190.044 24.372 189.444C24.78 188.844 25.164 188.124 25.524 187.284L25.668 186.888C25.788 186.576 25.908 186.252 26.028 185.916C26.148 185.58 26.208 185.244 26.208 184.908C26.184 184.428 26.064 183.996 25.848 183.612C25.632 183.204 25.392 182.892 25.128 182.676C25.416 182.532 25.728 182.316 26.064 182.028C26.424 181.716 26.748 181.368 27.036 180.984C27.348 180.576 27.6 180.144 27.792 179.688C28.008 179.232 28.116 178.764 28.116 178.284V178.212C28.116 177.54 28.056 176.88 27.936 176.232C27.84 175.584 27.648 175.02 27.36 174.54C27.096 174.06 26.724 173.676 26.244 173.388C25.788 173.076 25.2 172.92 24.48 172.92H7.956ZM11.088 183.288L13.068 177.816H20.448C20.496 177.816 20.604 177.924 20.772 178.14C20.964 178.332 21.096 178.488 21.168 178.608C21.168 178.608 21.168 178.632 21.168 178.68C21.192 178.728 21.216 178.764 21.24 178.788L21.168 178.968C21.144 179.04 21.084 179.148 20.988 179.292C20.916 179.412 20.832 179.544 20.736 179.688C20.64 179.832 20.544 179.964 20.448 180.084C20.376 180.18 20.328 180.228 20.304 180.228H14.544L11.088 183.288ZM9.684 187.104L10.62 184.692H18.9C18.9 184.86 18.888 185.028 18.864 185.196C18.864 185.364 18.84 185.484 18.792 185.556L18.72 185.736C18.696 185.76 18.636 185.868 18.54 186.06C18.444 186.228 18.396 186.312 18.396 186.312C18.324 186.384 18.216 186.468 18.072 186.564C17.928 186.636 17.784 186.72 17.64 186.816C17.496 186.888 17.364 186.96 17.244 187.032C17.124 187.08 17.064 187.104 17.064 187.104H9.684ZM29.9323 180.912L32.7763 172.92H39.5803C38.7403 175.368 38.0923 177.276 37.6363 178.644C37.1803 179.988 36.8443 180.996 36.6283 181.668C36.4123 182.34 36.2803 182.772 36.2323 182.964C36.1843 183.132 36.1603 183.252 36.1603 183.324C36.0403 183.804 35.9803 184.188 35.9803 184.476C35.9803 185.316 36.1843 185.976 36.5923 186.456C37.0003 186.912 37.5403 187.14 38.2123 187.14H39.9763C40.5523 187.14 41.0803 187.02 41.5603 186.78C42.0643 186.54 42.5083 186.24 42.8923 185.88C43.2763 185.52 43.6123 185.136 43.9003 184.728C44.1883 184.32 44.4163 183.948 44.5843 183.612L48.4723 172.92H55.3123L52.0723 181.812C51.4723 183.468 50.8603 184.932 50.2363 186.204C49.6123 187.452 48.9043 188.508 48.1123 189.372C47.3203 190.236 46.4083 190.896 45.3763 191.352C44.3443 191.784 43.1083 192 41.6683 192H37.4563C35.7763 192 34.3723 191.904 33.2443 191.712C32.1403 191.52 31.2523 191.22 30.5803 190.812C29.9083 190.38 29.4283 189.828 29.1403 189.156C28.8523 188.484 28.7083 187.668 28.7083 186.708C28.7083 186.444 28.7203 186.168 28.7443 185.88C28.7923 185.592 28.8403 185.28 28.8883 184.944C29.0083 184.32 29.1523 183.696 29.3203 183.072C29.5123 182.448 29.7163 181.728 29.9323 180.912ZM67.4674 185.952V185.736C67.4674 185.544 67.4314 185.352 67.3594 185.16C67.2874 184.944 67.1554 184.836 66.9634 184.836H59.7634C59.0434 184.836 58.3954 184.668 57.8194 184.332C57.2434 183.972 56.7394 183.528 56.3074 183C55.8994 182.448 55.5874 181.848 55.3714 181.2C55.1554 180.552 55.0474 179.916 55.0474 179.292C55.0474 178.716 55.2154 178.068 55.5514 177.348C55.8874 176.604 56.3194 175.908 56.8474 175.26C57.3754 174.588 57.9754 174.036 58.6474 173.604C59.3194 173.148 59.9914 172.92 60.6634 172.92H79.0234C78.4714 173.736 77.8354 174.552 77.1154 175.368C76.4194 176.184 75.6394 177 74.7754 177.816H62.8954C62.6314 177.816 62.4034 177.996 62.2114 178.356C62.0194 178.716 61.9234 179.004 61.9234 179.22V179.4C61.9234 179.424 61.9714 179.484 62.0674 179.58C62.1634 179.652 62.2354 179.712 62.2834 179.76C62.3794 179.856 62.5114 179.952 62.6794 180.048C62.8714 180.12 62.9794 180.156 63.0034 180.156H69.8434C70.6114 180.156 71.2714 180.348 71.8234 180.732C72.3754 181.092 72.8194 181.56 73.1554 182.136C73.5154 182.688 73.7794 183.288 73.9474 183.936C74.1154 184.584 74.1994 185.184 74.1994 185.736V185.952C74.1994 186.576 74.0554 187.248 73.7674 187.968C73.4794 188.664 73.0954 189.312 72.6154 189.912C72.1594 190.512 71.6194 191.016 70.9954 191.424C70.3954 191.808 69.7714 192 69.1234 192H50.7634C50.8834 191.76 51.1234 191.376 51.4834 190.848C51.8674 190.32 52.2634 189.792 52.6714 189.264C53.1034 188.712 53.4994 188.232 53.8594 187.824C54.2194 187.392 54.4354 187.176 54.5074 187.176H66.7474C67.1074 187.176 67.3114 187.068 67.3594 186.852C67.4314 186.636 67.4674 186.408 67.4674 186.168V185.952ZM73.4608 192H91.4248C91.6168 192 91.9168 191.808 92.3248 191.424C92.7568 191.04 93.1888 190.584 93.6208 190.056C94.0768 189.528 94.4968 189 94.8808 188.472C95.2888 187.92 95.5768 187.476 95.7448 187.14H88.9408L92.3608 177.78H96.6088C96.8008 177.78 97.1008 177.588 97.5088 177.204C97.9408 176.82 98.3728 176.364 98.8048 175.836C99.2608 175.308 99.6808 174.78 100.065 174.252C100.473 173.7 100.761 173.256 100.929 172.92H82.8928C82.5568 173.136 82.1488 173.496 81.6688 174C81.2128 174.48 80.7568 174.984 80.3008 175.512C79.8688 176.04 79.4848 176.52 79.1488 176.952C78.8368 177.384 78.6688 177.648 78.6448 177.744V177.78H85.4488L82.0288 187.14H77.7088C77.3728 187.356 76.9648 187.716 76.4848 188.22C76.0288 188.7 75.5728 189.204 75.1168 189.732C74.6848 190.26 74.3008 190.74 73.9648 191.172C73.6528 191.604 73.4848 191.868 73.4608 191.964V192ZM95.8244 192H102.736L106.624 181.272L108.64 192H117.352L124.3 172.92H117.46L113.536 183.648L111.484 172.92H102.772L95.8244 192ZM126.327 172.92L119.379 192H137.487C137.511 192 137.655 191.88 137.919 191.64C138.207 191.4 138.531 191.112 138.891 190.776C139.251 190.416 139.611 190.044 139.971 189.66C140.355 189.276 140.655 188.94 140.871 188.652C140.895 188.628 140.955 188.544 141.051 188.4C141.147 188.256 141.243 188.1 141.339 187.932C141.435 187.764 141.531 187.608 141.627 187.464C141.723 187.296 141.783 187.188 141.807 187.14H128.019L128.811 184.98H135.975L141.123 180.12H132.807L129.387 183.432L131.439 177.78H142.527C142.719 177.78 143.019 177.588 143.427 177.204C143.859 176.82 144.291 176.364 144.723 175.836C145.179 175.308 145.599 174.78 145.983 174.252C146.391 173.7 146.679 173.256 146.847 172.92H126.327ZM158.979 185.952V185.736C158.979 185.544 158.943 185.352 158.871 185.16C158.799 184.944 158.667 184.836 158.475 184.836H151.275C150.555 184.836 149.907 184.668 149.331 184.332C148.755 183.972 148.251 183.528 147.819 183C147.411 182.448 147.099 181.848 146.883 181.2C146.667 180.552 146.559 179.916 146.559 179.292C146.559 178.716 146.727 178.068 147.063 177.348C147.399 176.604 147.831 175.908 148.359 175.26C148.887 174.588 149.487 174.036 150.159 173.604C150.831 173.148 151.503 172.92 152.175 172.92H170.535C169.983 173.736 169.347 174.552 168.627 175.368C167.931 176.184 167.151 177 166.287 177.816H154.407C154.143 177.816 153.915 177.996 153.723 178.356C153.531 178.716 153.435 179.004 153.435 179.22V179.4C153.435 179.424 153.483 179.484 153.579 179.58C153.675 179.652 153.747 179.712 153.795 179.76C153.891 179.856 154.023 179.952 154.191 180.048C154.383 180.12 154.491 180.156 154.515 180.156H161.355C162.123 180.156 162.783 180.348 163.335 180.732C163.887 181.092 164.331 181.56 164.667 182.136C165.027 182.688 165.291 183.288 165.459 183.936C165.627 184.584 165.711 185.184 165.711 185.736V185.952C165.711 186.576 165.567 187.248 165.279 187.968C164.991 188.664 164.607 189.312 164.127 189.912C163.671 190.512 163.131 191.016 162.507 191.424C161.907 191.808 161.283 192 160.635 192H142.275C142.395 191.76 142.635 191.376 142.995 190.848C143.379 190.32 143.775 189.792 144.183 189.264C144.615 188.712 145.011 188.232 145.371 187.824C145.731 187.392 145.947 187.176 146.019 187.176H158.259C158.619 187.176 158.823 187.068 158.871 186.852C158.943 186.636 158.979 186.408 158.979 186.168V185.952ZM182.499 185.952V185.736C182.499 185.544 182.463 185.352 182.391 185.16C182.319 184.944 182.187 184.836 181.995 184.836H174.795C174.075 184.836 173.427 184.668 172.851 184.332C172.275 183.972 171.771 183.528 171.339 183C170.931 182.448 170.619 181.848 170.403 181.2C170.187 180.552 170.079 179.916 170.079 179.292C170.079 178.716 170.247 178.068 170.583 177.348C170.919 176.604 171.351 175.908 171.879 175.26C172.407 174.588 173.007 174.036 173.679 173.604C174.351 173.148 175.023 172.92 175.695 172.92H194.055C193.503 173.736 192.867 174.552 192.147 175.368C191.451 176.184 190.671 177 189.807 177.816H177.927C177.663 177.816 177.435 177.996 177.243 178.356C177.051 178.716 176.955 179.004 176.955 179.22V179.4C176.955 179.424 177.003 179.484 177.099 179.58C177.195 179.652 177.267 179.712 177.315 179.76C177.411 179.856 177.543 179.952 177.711 180.048C177.903 180.12 178.011 180.156 178.035 180.156H184.875C185.643 180.156 186.303 180.348 186.855 180.732C187.407 181.092 187.851 181.56 188.187 182.136C188.547 182.688 188.811 183.288 188.979 183.936C189.147 184.584 189.231 185.184 189.231 185.736V185.952C189.231 186.576 189.087 187.248 188.799 187.968C188.511 188.664 188.127 189.312 187.647 189.912C187.191 190.512 186.651 191.016 186.027 191.424C185.427 191.808 184.803 192 184.155 192H165.795C165.915 191.76 166.155 191.376 166.515 190.848C166.899 190.32 167.295 189.792 167.703 189.264C168.135 188.712 168.531 188.232 168.891 187.824C169.251 187.392 169.467 187.176 169.539 187.176H181.779C182.139 187.176 182.343 187.068 182.391 186.852C182.463 186.636 182.499 186.408 182.499 186.168V185.952ZM199.676 184.98L204.824 180.12H196.508L191.36 184.98H199.676ZM201.992 192H219.956C220.148 192 220.448 191.808 220.856 191.424C221.288 191.04 221.72 190.584 222.152 190.056C222.608 189.528 223.028 189 223.412 188.472C223.82 187.92 224.108 187.476 224.276 187.14H217.472L220.892 177.78H225.14C225.332 177.78 225.632 177.588 226.04 177.204C226.472 176.82 226.904 176.364 227.336 175.836C227.792 175.308 228.212 174.78 228.596 174.252C229.004 173.7 229.292 173.256 229.46 172.92H211.424C211.088 173.136 210.68 173.496 210.2 174C209.744 174.48 209.288 174.984 208.832 175.512C208.4 176.04 208.016 176.52 207.68 176.952C207.368 177.384 207.2 177.648 207.176 177.744V177.78H213.98L210.56 187.14H206.24C205.904 187.356 205.496 187.716 205.016 188.22C204.56 188.7 204.104 189.204 203.648 189.732C203.216 190.26 202.832 190.74 202.496 191.172C202.184 191.604 202.016 191.868 201.992 191.964V192ZM230.171 192H237.083L242.267 177.78H246.515C246.707 177.78 247.007 177.588 247.415 177.204C247.847 176.82 248.279 176.364 248.711 175.836C249.167 175.308 249.587 174.78 249.971 174.252C250.379 173.7 250.667 173.256 250.835 172.92H232.799C232.463 173.136 232.055 173.496 231.575 174C231.119 174.48 230.663 174.984 230.207 175.512C229.775 176.04 229.391 176.52 229.055 176.952C228.743 177.384 228.575 177.648 228.551 177.744V177.78H235.355L230.171 192ZM4.572 214.252C4.572 215.98 4.908 217.408 5.58 218.536C6.276 219.664 7.188 220.564 8.316 221.236C9.444 221.884 10.716 222.34 12.132 222.604C13.548 222.868 15 223 16.488 223H19.368C20.28 222.28 21.084 221.5 21.78 220.66C22.476 219.796 23.1 218.956 23.652 218.14H15.048C14.64 218.14 14.208 217.996 13.752 217.708C13.32 217.42 12.912 217.06 12.528 216.628C12.168 216.196 11.868 215.728 11.628 215.224C11.388 214.696 11.268 214.204 11.268 213.748C11.268 213.388 11.364 212.896 11.556 212.272C11.7 211.864 11.904 211.456 12.168 211.048C12.432 210.616 12.72 210.232 13.032 209.896C13.368 209.56 13.704 209.296 14.04 209.104C14.4 208.888 14.736 208.78 15.048 208.78H24.408C25.248 208.06 26.016 207.304 26.712 206.512C27.432 205.696 28.14 204.832 28.836 203.92H13.968C12.696 203.92 11.496 204.244 10.368 204.892C9.24 205.516 8.244 206.32 7.38 207.304C6.516 208.288 5.832 209.392 5.328 210.616C4.824 211.84 4.572 213.028 4.572 214.18V214.252ZM50.067 212.668C50.211 211.852 50.283 211.084 50.283 210.364C50.283 208.06 49.527 206.416 48.015 205.432C46.527 204.424 44.331 203.92 41.427 203.92H36.675C35.403 203.92 34.143 204.208 32.895 204.784C31.671 205.36 30.543 206.128 29.511 207.088C28.479 208.024 27.615 209.116 26.919 210.364C26.223 211.612 25.779 212.908 25.587 214.252C25.539 214.588 25.503 214.912 25.479 215.224C25.455 215.536 25.443 215.836 25.443 216.124C25.443 217.468 25.671 218.584 26.127 219.472C26.607 220.36 27.255 221.068 28.071 221.596C28.887 222.1 29.859 222.46 30.987 222.676C32.115 222.892 33.339 223 34.659 223H38.259C39.675 223 41.043 222.724 42.363 222.172C43.707 221.62 44.907 220.876 45.963 219.94C47.043 219.004 47.943 217.912 48.663 216.664C49.383 215.416 49.851 214.084 50.067 212.668ZM32.355 213.748C32.379 213.556 32.439 213.34 32.535 213.1C32.631 212.836 32.739 212.56 32.859 212.272C33.075 211.864 33.363 211.456 33.723 211.048C34.107 210.616 34.515 210.232 34.947 209.896C35.379 209.56 35.811 209.296 36.243 209.104C36.699 208.888 37.119 208.78 37.503 208.78H40.419C41.019 208.78 41.499 208.876 41.859 209.068C42.243 209.236 42.543 209.476 42.759 209.788C42.975 210.076 43.119 210.412 43.191 210.796C43.263 211.18 43.299 211.564 43.299 211.948C43.299 212.164 43.287 212.38 43.263 212.596C43.263 212.788 43.251 212.98 43.227 213.172C43.227 213.148 43.203 213.256 43.155 213.496L43.011 213.856C42.963 214.048 42.831 214.312 42.615 214.648C42.399 215.056 42.075 215.476 41.643 215.908C41.211 216.316 40.755 216.688 40.275 217.024C39.795 217.36 39.327 217.636 38.871 217.852C38.439 218.044 38.103 218.14 37.863 218.14H35.487C35.055 218.14 34.647 218.02 34.263 217.78C33.879 217.54 33.543 217.228 33.255 216.844C32.967 216.46 32.739 216.04 32.571 215.584C32.403 215.104 32.319 214.648 32.319 214.216V214C32.319 213.856 32.331 213.772 32.355 213.748ZM76.4083 223L83.3563 203.92H74.6443L65.8243 213.496L63.9883 203.92H55.2763L48.3283 223H55.2403L59.1283 212.272L61.1083 223H63.5923L73.3843 212.272L69.4963 223H76.4083ZM78.4221 223H85.3341L87.8541 216.088H97.9701C98.7861 216.088 99.6381 215.92 100.526 215.584C101.414 215.248 102.23 214.78 102.974 214.18C103.718 213.556 104.33 212.824 104.81 211.984C105.29 211.144 105.53 210.22 105.53 209.212C105.53 208.732 105.47 208.192 105.35 207.592C105.254 206.968 105.062 206.392 104.774 205.864C104.51 205.312 104.138 204.856 103.658 204.496C103.202 204.112 102.614 203.92 101.894 203.92H85.3701L78.4221 223ZM90.4821 208.816H97.8621C97.9101 208.816 98.0181 208.924 98.1861 209.14C98.3781 209.332 98.5101 209.488 98.5821 209.608C98.5821 209.608 98.5821 209.632 98.5821 209.68C98.6061 209.728 98.6301 209.764 98.6541 209.788L98.5821 209.968C98.5581 210.04 98.4981 210.148 98.4021 210.292C98.3301 210.412 98.2461 210.544 98.1501 210.688C98.0541 210.832 97.9581 210.964 97.8621 211.084C97.7901 211.18 97.7421 211.228 97.7181 211.228H91.9581L88.5021 214.288L90.4821 208.816ZM109.663 203.92L102.715 223H120.823C120.847 223 120.991 222.88 121.255 222.64C121.543 222.4 121.867 222.112 122.227 221.776C122.587 221.416 122.947 221.044 123.307 220.66C123.691 220.276 123.991 219.94 124.207 219.652C124.231 219.628 124.291 219.544 124.387 219.4C124.483 219.256 124.579 219.1 124.675 218.932C124.771 218.764 124.867 218.608 124.963 218.464C125.059 218.296 125.119 218.188 125.143 218.14H111.355L112.147 215.98H119.311L124.459 211.12H116.143L112.723 214.432L114.775 208.78H125.863C126.055 208.78 126.355 208.588 126.763 208.204C127.195 207.82 127.627 207.364 128.059 206.836C128.515 206.308 128.935 205.78 129.319 205.252C129.727 204.7 130.015 204.256 130.183 203.92H109.663ZM131.066 223H137.978L143.162 208.78H147.41C147.602 208.78 147.902 208.588 148.31 208.204C148.742 207.82 149.174 207.364 149.606 206.836C150.062 206.308 150.482 205.78 150.866 205.252C151.274 204.7 151.562 204.256 151.73 203.92H133.694C133.358 204.136 132.95 204.496 132.47 205C132.014 205.48 131.558 205.984 131.102 206.512C130.67 207.04 130.286 207.52 129.95 207.952C129.638 208.384 129.47 208.648 129.446 208.744V208.78H136.25L131.066 223ZM145.637 223H163.601C163.793 223 164.093 222.808 164.501 222.424C164.933 222.04 165.365 221.584 165.797 221.056C166.253 220.528 166.673 220 167.057 219.472C167.465 218.92 167.753 218.476 167.921 218.14H161.117L164.537 208.78H168.785C168.977 208.78 169.277 208.588 169.685 208.204C170.117 207.82 170.549 207.364 170.981 206.836C171.437 206.308 171.857 205.78 172.241 205.252C172.649 204.7 172.937 204.256 173.105 203.92H155.069C154.733 204.136 154.325 204.496 153.845 205C153.389 205.48 152.933 205.984 152.477 206.512C152.045 207.04 151.661 207.52 151.325 207.952C151.013 208.384 150.845 208.648 150.821 208.744V208.78H157.625L154.205 218.14H149.885C149.549 218.356 149.141 218.716 148.661 219.22C148.205 219.7 147.749 220.204 147.293 220.732C146.861 221.26 146.477 221.74 146.141 222.172C145.829 222.604 145.661 222.868 145.637 222.964V223ZM173.816 223H180.728L185.912 208.78H190.16C190.352 208.78 190.652 208.588 191.06 208.204C191.492 207.82 191.924 207.364 192.356 206.836C192.812 206.308 193.232 205.78 193.616 205.252C194.024 204.7 194.312 204.256 194.48 203.92H176.444C176.108 204.136 175.7 204.496 175.22 205C174.764 205.48 174.308 205.984 173.852 206.512C173.42 207.04 173.036 207.52 172.7 207.952C172.388 208.384 172.22 208.648 172.196 208.744V208.78H179L173.816 223ZM188.387 223H206.351C206.543 223 206.843 222.808 207.251 222.424C207.683 222.04 208.115 221.584 208.547 221.056C209.003 220.528 209.423 220 209.807 219.472C210.215 218.92 210.503 218.476 210.671 218.14H203.867L207.287 208.78H211.535C211.727 208.78 212.027 208.588 212.435 208.204C212.867 207.82 213.299 207.364 213.731 206.836C214.187 206.308 214.607 205.78 214.991 205.252C215.399 204.7 215.687 204.256 215.855 203.92H197.819C197.483 204.136 197.075 204.496 196.595 205C196.139 205.48 195.683 205.984 195.227 206.512C194.795 207.04 194.411 207.52 194.075 207.952C193.763 208.384 193.595 208.648 193.571 208.744V208.78H200.375L196.955 218.14H192.635C192.299 218.356 191.891 218.716 191.411 219.22C190.955 219.7 190.499 220.204 190.043 220.732C189.611 221.26 189.227 221.74 188.891 222.172C188.579 222.604 188.411 222.868 188.387 222.964V223ZM237.309 212.668C237.453 211.852 237.525 211.084 237.525 210.364C237.525 208.06 236.769 206.416 235.257 205.432C233.769 204.424 231.573 203.92 228.669 203.92H223.917C222.645 203.92 221.385 204.208 220.137 204.784C218.913 205.36 217.785 206.128 216.753 207.088C215.721 208.024 214.857 209.116 214.161 210.364C213.465 211.612 213.021 212.908 212.829 214.252C212.781 214.588 212.745 214.912 212.721 215.224C212.697 215.536 212.685 215.836 212.685 216.124C212.685 217.468 212.913 218.584 213.369 219.472C213.849 220.36 214.497 221.068 215.313 221.596C216.129 222.1 217.101 222.46 218.229 222.676C219.357 222.892 220.581 223 221.901 223H225.501C226.917 223 228.285 222.724 229.605 222.172C230.949 221.62 232.149 220.876 233.205 219.94C234.285 219.004 235.185 217.912 235.905 216.664C236.625 215.416 237.093 214.084 237.309 212.668ZM219.597 213.748C219.621 213.556 219.681 213.34 219.777 213.1C219.873 212.836 219.981 212.56 220.101 212.272C220.317 211.864 220.605 211.456 220.965 211.048C221.349 210.616 221.757 210.232 222.189 209.896C222.621 209.56 223.053 209.296 223.485 209.104C223.941 208.888 224.361 208.78 224.745 208.78H227.661C228.261 208.78 228.741 208.876 229.101 209.068C229.485 209.236 229.785 209.476 230.001 209.788C230.217 210.076 230.361 210.412 230.433 210.796C230.505 211.18 230.541 211.564 230.541 211.948C230.541 212.164 230.529 212.38 230.505 212.596C230.505 212.788 230.493 212.98 230.469 213.172C230.469 213.148 230.445 213.256 230.397 213.496L230.253 213.856C230.205 214.048 230.073 214.312 229.857 214.648C229.641 215.056 229.317 215.476 228.885 215.908C228.453 216.316 227.997 216.688 227.517 217.024C227.037 217.36 226.569 217.636 226.113 217.852C225.681 218.044 225.345 218.14 225.105 218.14H222.729C222.297 218.14 221.889 218.02 221.505 217.78C221.121 217.54 220.785 217.228 220.497 216.844C220.209 216.46 219.981 216.04 219.813 215.584C219.645 215.104 219.561 214.648 219.561 214.216V214C219.561 213.856 219.573 213.772 219.597 213.748ZM235.571 223H242.483L246.371 212.272L248.387 223H257.099L264.047 203.92H257.207L253.283 214.648L251.231 203.92H242.519L235.571 223ZM276.225 216.952V216.736C276.225 216.544 276.189 216.352 276.117 216.16C276.045 215.944 275.913 215.836 275.721 215.836H268.521C267.801 215.836 267.153 215.668 266.577 215.332C266.001 214.972 265.497 214.528 265.065 214C264.657 213.448 264.345 212.848 264.129 212.2C263.913 211.552 263.805 210.916 263.805 210.292C263.805 209.716 263.973 209.068 264.309 208.348C264.645 207.604 265.077 206.908 265.605 206.26C266.133 205.588 266.733 205.036 267.405 204.604C268.077 204.148 268.749 203.92 269.421 203.92H287.781C287.229 204.736 286.593 205.552 285.873 206.368C285.177 207.184 284.397 208 283.533 208.816H271.653C271.389 208.816 271.161 208.996 270.969 209.356C270.777 209.716 270.681 210.004 270.681 210.22V210.4C270.681 210.424 270.729 210.484 270.825 210.58C270.921 210.652 270.993 210.712 271.041 210.76C271.137 210.856 271.269 210.952 271.437 211.048C271.629 211.12 271.737 211.156 271.761 211.156H278.601C279.393 211.156 280.065 211.348 280.617 211.732C281.169 212.092 281.613 212.56 281.949 213.136C282.309 213.688 282.561 214.288 282.705 214.936C282.873 215.584 282.957 216.184 282.957 216.736V216.952C282.957 217.576 282.813 218.248 282.525 218.968C282.237 219.664 281.853 220.312 281.373 220.912C280.917 221.512 280.377 222.016 279.753 222.424C279.153 222.808 278.529 223 277.881 223H259.521C259.641 222.76 259.881 222.376 260.241 221.848C260.625 221.32 261.021 220.792 261.429 220.264C261.861 219.712 262.257 219.232 262.617 218.824C262.977 218.392 263.193 218.176 263.265 218.176H275.505C275.865 218.176 276.069 218.068 276.117 217.852C276.189 217.636 276.225 217.408 276.225 217.168V216.952Z" fill="url(#paint0_linear)"/>
<defs>
<linearGradient id="paint0_linear" x1="141" y1="166" x2="141" y2="228" gradientUnits="userSpaceOnUse">
<stop offset="0.625" stop-color="#AC1783"/>
<stop offset="1" stop-color="#3462DA"/>
</linearGradient>
</defs>
</svg>
