<svg width="197" height="190" viewBox="0 0 197 190" fill="none" xmlns="http://www.w3.org/2000/svg">
<path d="M36.108 178.952V178.736C36.108 178.544 36.072 178.352 36 178.16C35.928 177.944 35.796 177.836 35.604 177.836H28.404C27.684 177.836 27.036 177.668 26.46 177.332C25.884 176.972 25.38 176.528 24.948 176C24.54 175.448 24.228 174.848 24.012 174.2C23.796 173.552 23.688 172.916 23.688 172.292C23.688 171.716 23.856 171.068 24.192 170.348C24.528 169.604 24.96 168.908 25.488 168.26C26.016 167.588 26.616 167.036 27.288 166.604C27.96 166.148 28.632 165.92 29.304 165.92H47.664C47.112 166.736 46.476 167.552 45.756 168.368C45.06 169.184 44.28 170 43.416 170.816H31.536C31.272 170.816 31.044 170.996 30.852 171.356C30.66 171.716 30.564 172.004 30.564 172.22V172.4C30.564 172.424 30.612 172.484 30.708 172.58C30.804 172.652 30.876 172.712 30.924 172.76C31.02 172.856 31.152 172.952 31.32 173.048C31.512 173.12 31.62 173.156 31.644 173.156H38.484C39.252 173.156 39.912 173.348 40.464 173.732C41.016 174.092 41.46 174.56 41.796 175.136C42.156 175.688 42.42 176.288 42.588 176.936C42.756 177.584 42.84 178.184 42.84 178.736V178.952C42.84 179.576 42.696 180.248 42.408 180.968C42.12 181.664 41.736 182.312 41.256 182.912C40.8 183.512 40.26 184.016 39.636 184.424C39.036 184.808 38.412 185 37.764 185H19.404C19.524 184.76 19.764 184.376 20.124 183.848C20.508 183.32 20.904 182.792 21.312 182.264C21.744 181.712 22.14 181.232 22.5 180.824C22.86 180.392 23.076 180.176 23.148 180.176H35.388C35.748 180.176 35.952 180.068 36 179.852C36.072 179.636 36.108 179.408 36.108 179.168V178.952ZM49.7216 165.92L42.7736 185H60.8816C60.9056 185 61.0496 184.88 61.3136 184.64C61.6016 184.4 61.9256 184.112 62.2856 183.776C62.6456 183.416 63.0056 183.044 63.3656 182.66C63.7496 182.276 64.0496 181.94 64.2656 181.652C64.2896 181.628 64.3496 181.544 64.4456 181.4C64.5416 181.256 64.6376 181.1 64.7336 180.932C64.8296 180.764 64.9256 180.608 65.0216 180.464C65.1176 180.296 65.1776 180.188 65.2016 180.14H51.4136L52.2056 177.98H59.3696L64.5176 173.12H56.2016L52.7816 176.432L54.8336 170.78H65.9216C66.1136 170.78 66.4136 170.588 66.8216 170.204C67.2536 169.82 67.6856 169.364 68.1176 168.836C68.5736 168.308 68.9936 167.78 69.3776 167.252C69.7856 166.7 70.0736 166.256 70.2416 165.92H49.7216ZM93.3536 185L100.302 165.92H91.5896L82.7696 175.496L80.9336 165.92H72.2216L65.2736 185H72.1856L76.0736 174.272L78.0536 185H80.5376L90.3296 174.272L86.4416 185H93.3536ZM95.4394 185H102.351L109.299 165.92H102.387L95.4394 185ZM104.438 185H111.35L115.238 174.272L117.254 185H125.966L132.914 165.92H126.074L122.15 176.648L120.098 165.92H111.386L104.438 185ZM153.516 185L151.14 169.556C151.068 169.268 150.972 168.92 150.852 168.512C150.756 168.08 150.636 167.672 150.492 167.288C150.348 166.904 150.168 166.58 149.952 166.316C149.76 166.052 149.544 165.92 149.304 165.92H143.256C143.088 165.92 142.872 166.016 142.608 166.208C142.368 166.376 142.116 166.58 141.852 166.82C141.612 167.036 141.384 167.264 141.168 167.504C140.952 167.744 140.808 167.936 140.736 168.08L127.776 184.64V184.748C127.776 184.724 127.752 184.808 127.704 185H142.932C143.1 184.928 143.364 184.7 143.724 184.316C144.084 183.932 144.444 183.512 144.804 183.056C145.188 182.6 145.524 182.168 145.812 181.76C146.124 181.352 146.304 181.076 146.352 180.932L147.108 185H153.516ZM139.044 179.816L145.092 171.716L146.352 180.176H139.044V179.816ZM155.168 185H162.08L164.456 178.448L164.852 178.16L172.268 185H179.972L172.916 177.764C173.876 177.692 174.896 177.56 175.976 177.368C177.08 177.152 178.076 176.816 178.964 176.36C179.876 175.88 180.632 175.244 181.232 174.452C181.832 173.66 182.132 172.652 182.132 171.428C182.132 170.876 182.084 170.276 181.988 169.628C181.916 168.98 181.736 168.38 181.448 167.828C181.184 167.276 180.788 166.82 180.26 166.46C179.732 166.1 179.036 165.92 178.172 165.92H162.116L155.168 185ZM175.148 171.824C175.148 172.064 175.064 172.352 174.896 172.688C174.752 173 174.5 173.156 174.14 173.156H168.38L165.212 176.36L167.264 170.744H174.5C174.788 170.744 174.968 170.816 175.04 170.96C175.112 171.08 175.148 171.236 175.148 171.428V171.824Z" fill="url(#paint0_linear)"/>
<rect x="32.25" y="1.5" width="134.5" height="83" rx="6.5" fill="white" stroke="black" stroke-width="3"/>
<rect x="45.5" y="13.5" width="106.5" height="59.5" fill="#56CCF2"/>
<path d="M29.5913 95.2766C30.8073 93.5366 32.7963 92.5 34.9191 92.5H163.921C166.115 92.5 168.162 93.6074 169.362 95.4445L187.658 123.445C190.483 127.768 187.381 133.5 182.216 133.5H15.3509C10.0946 133.5 7.01204 127.585 10.0231 123.277L29.5913 95.2766Z" fill="white" stroke="black" stroke-width="3"/>
<defs>
<linearGradient id="paint0_linear" x1="99" y1="159" x2="99" y2="190" gradientUnits="userSpaceOnUse">
<stop offset="0.625" stop-color="#AC1783"/>
<stop offset="1" stop-color="#3462DA"/>
</linearGradient>
</defs>
</svg>
