<svg width="208" height="195" viewBox="0 0 208 195" fill="none" xmlns="http://www.w3.org/2000/svg">
<path d="M25.812 179.704L25.2 170.92H19.656L13.536 180.352V170.92H7.596V186.724C7.596 187.036 7.608 187.384 7.632 187.768C7.656 188.152 7.692 188.512 7.74 188.848C7.812 189.16 7.896 189.436 7.992 189.676C8.112 189.892 8.256 190 8.424 190H12.708C12.852 190 13.02 189.916 13.212 189.748C13.404 189.556 13.596 189.34 13.788 189.1C13.98 188.836 14.16 188.584 14.328 188.344C14.496 188.08 14.64 187.876 14.76 187.732L19.008 181.648C19.176 183.112 19.308 184.372 19.404 185.428C19.524 186.484 19.632 187.348 19.728 188.02C19.824 188.692 19.92 189.196 20.016 189.532C20.136 189.844 20.292 190 20.484 190H24.732C24.852 190 25.008 189.916 25.2 189.748C25.416 189.556 25.62 189.34 25.812 189.1C26.028 188.836 26.22 188.584 26.388 188.344C26.58 188.08 26.724 187.876 26.82 187.732L37.692 170.92H31.356L25.812 179.704ZM58.4693 179.668C58.6133 178.852 58.6853 178.084 58.6853 177.364C58.6853 175.06 57.9293 173.416 56.4173 172.432C54.9293 171.424 52.7333 170.92 49.8293 170.92H45.0773C43.8053 170.92 42.5453 171.208 41.2973 171.784C40.0733 172.36 38.9453 173.128 37.9133 174.088C36.8813 175.024 36.0173 176.116 35.3213 177.364C34.6253 178.612 34.1813 179.908 33.9893 181.252C33.9413 181.588 33.9053 181.912 33.8813 182.224C33.8573 182.536 33.8453 182.836 33.8453 183.124C33.8453 184.468 34.0733 185.584 34.5293 186.472C35.0093 187.36 35.6573 188.068 36.4733 188.596C37.2893 189.1 38.2613 189.46 39.3893 189.676C40.5173 189.892 41.7413 190 43.0613 190H46.6613C48.0773 190 49.4453 189.724 50.7653 189.172C52.1093 188.62 53.3093 187.876 54.3653 186.94C55.4453 186.004 56.3453 184.912 57.0653 183.664C57.7853 182.416 58.2533 181.084 58.4693 179.668ZM40.7573 180.748C40.7813 180.556 40.8413 180.34 40.9373 180.1C41.0333 179.836 41.1413 179.56 41.2613 179.272C41.4773 178.864 41.7653 178.456 42.1253 178.048C42.5093 177.616 42.9173 177.232 43.3493 176.896C43.7813 176.56 44.2133 176.296 44.6453 176.104C45.1013 175.888 45.5213 175.78 45.9053 175.78H48.8213C49.4213 175.78 49.9013 175.876 50.2613 176.068C50.6453 176.236 50.9453 176.476 51.1613 176.788C51.3773 177.076 51.5213 177.412 51.5933 177.796C51.6653 178.18 51.7013 178.564 51.7013 178.948C51.7013 179.164 51.6893 179.38 51.6653 179.596C51.6653 179.788 51.6533 179.98 51.6293 180.172C51.6293 180.148 51.6053 180.256 51.5573 180.496L51.4133 180.856C51.3653 181.048 51.2333 181.312 51.0173 181.648C50.8013 182.056 50.4773 182.476 50.0453 182.908C49.6133 183.316 49.1573 183.688 48.6773 184.024C48.1973 184.36 47.7293 184.636 47.2733 184.852C46.8413 185.044 46.5053 185.14 46.2653 185.14H43.8893C43.4573 185.14 43.0493 185.02 42.6653 184.78C42.2813 184.54 41.9453 184.228 41.6573 183.844C41.3693 183.46 41.1413 183.04 40.9733 182.584C40.8053 182.104 40.7213 181.648 40.7213 181.216V181C40.7213 180.856 40.7333 180.772 40.7573 180.748ZM56.7307 190H63.6427L66.0187 183.448L66.4147 183.16L73.8307 190H81.5347L74.4787 182.764C75.4387 182.692 76.4587 182.56 77.5387 182.368C78.6427 182.152 79.6387 181.816 80.5267 181.36C81.4387 180.88 82.1947 180.244 82.7947 179.452C83.3947 178.66 83.6947 177.652 83.6947 176.428C83.6947 175.876 83.6347 175.276 83.5147 174.628C83.4187 173.98 83.2267 173.38 82.9387 172.828C82.6507 172.276 82.2427 171.82 81.7147 171.46C81.2107 171.1 80.5507 170.92 79.7347 170.92H63.6787L56.7307 190ZM76.7107 176.824C76.7107 177.064 76.6267 177.352 76.4587 177.688C76.3147 178 76.0627 178.156 75.7027 178.156H69.9427L66.7747 181.36L68.8267 175.744H76.0627C76.3507 175.744 76.5307 175.816 76.6027 175.96C76.6747 176.08 76.7107 176.236 76.7107 176.428V176.824ZM81.6916 190H88.6036L91.7356 181.432L98.7916 190H106.496L99.5836 180.46L112.04 170.92H104.336L92.4196 179.488L95.5516 170.92H88.6396L81.6916 190ZM123.928 183.952V183.736C123.928 183.544 123.892 183.352 123.82 183.16C123.748 182.944 123.616 182.836 123.424 182.836H116.224C115.504 182.836 114.856 182.668 114.28 182.332C113.704 181.972 113.2 181.528 112.768 181C112.36 180.448 112.048 179.848 111.832 179.2C111.616 178.552 111.508 177.916 111.508 177.292C111.508 176.716 111.676 176.068 112.012 175.348C112.348 174.604 112.78 173.908 113.308 173.26C113.836 172.588 114.436 172.036 115.108 171.604C115.78 171.148 116.452 170.92 117.124 170.92H135.484C134.932 171.736 134.296 172.552 133.576 173.368C132.88 174.184 132.1 175 131.236 175.816H119.356C119.092 175.816 118.864 175.996 118.672 176.356C118.48 176.716 118.384 177.004 118.384 177.22V177.4C118.384 177.424 118.432 177.484 118.528 177.58C118.624 177.652 118.696 177.712 118.744 177.76C118.84 177.856 118.972 177.952 119.14 178.048C119.332 178.12 119.44 178.156 119.464 178.156H126.304C127.072 178.156 127.732 178.348 128.284 178.732C128.836 179.092 129.28 179.56 129.616 180.136C129.976 180.688 130.24 181.288 130.408 181.936C130.576 182.584 130.66 183.184 130.66 183.736V183.952C130.66 184.576 130.516 185.248 130.228 185.968C129.94 186.664 129.556 187.312 129.076 187.912C128.62 188.512 128.08 189.016 127.456 189.424C126.856 189.808 126.232 190 125.584 190H107.224C107.344 189.76 107.584 189.376 107.944 188.848C108.328 188.32 108.724 187.792 109.132 187.264C109.564 186.712 109.96 186.232 110.32 185.824C110.68 185.392 110.896 185.176 110.968 185.176H123.208C123.568 185.176 123.772 185.068 123.82 184.852C123.892 184.636 123.928 184.408 123.928 184.168V183.952ZM130.594 190H137.506L139.99 183.16H147.766L145.282 190H152.122L159.07 170.92H152.23L149.53 178.3H144.058L140.386 182.08L144.454 170.92H137.542L130.594 190ZM181.833 179.668C181.977 178.852 182.049 178.084 182.049 177.364C182.049 175.06 181.293 173.416 179.781 172.432C178.293 171.424 176.097 170.92 173.193 170.92H168.441C167.169 170.92 165.909 171.208 164.661 171.784C163.437 172.36 162.309 173.128 161.277 174.088C160.245 175.024 159.381 176.116 158.685 177.364C157.989 178.612 157.545 179.908 157.353 181.252C157.305 181.588 157.269 181.912 157.245 182.224C157.221 182.536 157.209 182.836 157.209 183.124C157.209 184.468 157.437 185.584 157.893 186.472C158.373 187.36 159.021 188.068 159.837 188.596C160.653 189.1 161.625 189.46 162.753 189.676C163.881 189.892 165.105 190 166.425 190H170.025C171.441 190 172.809 189.724 174.129 189.172C175.473 188.62 176.673 187.876 177.729 186.94C178.809 186.004 179.709 184.912 180.429 183.664C181.149 182.416 181.617 181.084 181.833 179.668ZM164.121 180.748C164.145 180.556 164.205 180.34 164.301 180.1C164.397 179.836 164.505 179.56 164.625 179.272C164.841 178.864 165.129 178.456 165.489 178.048C165.873 177.616 166.281 177.232 166.713 176.896C167.145 176.56 167.577 176.296 168.009 176.104C168.465 175.888 168.885 175.78 169.269 175.78H172.185C172.785 175.78 173.265 175.876 173.625 176.068C174.009 176.236 174.309 176.476 174.525 176.788C174.741 177.076 174.885 177.412 174.957 177.796C175.029 178.18 175.065 178.564 175.065 178.948C175.065 179.164 175.053 179.38 175.029 179.596C175.029 179.788 175.017 179.98 174.993 180.172C174.993 180.148 174.969 180.256 174.921 180.496L174.777 180.856C174.729 181.048 174.597 181.312 174.381 181.648C174.165 182.056 173.841 182.476 173.409 182.908C172.977 183.316 172.521 183.688 172.041 184.024C171.561 184.36 171.093 184.636 170.637 184.852C170.205 185.044 169.869 185.14 169.629 185.14H167.253C166.821 185.14 166.413 185.02 166.029 184.78C165.645 184.54 165.309 184.228 165.021 183.844C164.733 183.46 164.505 183.04 164.337 182.584C164.169 182.104 164.085 181.648 164.085 181.216V181C164.085 180.856 164.097 180.772 164.121 180.748ZM180.094 190H187.006L189.526 183.088H199.642C200.458 183.088 201.31 182.92 202.198 182.584C203.086 182.248 203.902 181.78 204.646 181.18C205.39 180.556 206.002 179.824 206.482 178.984C206.962 178.144 207.202 177.22 207.202 176.212C207.202 175.732 207.142 175.192 207.022 174.592C206.926 173.968 206.734 173.392 206.446 172.864C206.182 172.312 205.81 171.856 205.33 171.496C204.874 171.112 204.286 170.92 203.566 170.92H187.042L180.094 190ZM192.154 175.816H199.534C199.582 175.816 199.69 175.924 199.858 176.14C200.05 176.332 200.182 176.488 200.254 176.608C200.254 176.608 200.254 176.632 200.254 176.68C200.278 176.728 200.302 176.764 200.326 176.788L200.254 176.968C200.23 177.04 200.17 177.148 200.074 177.292C200.002 177.412 199.918 177.544 199.822 177.688C199.726 177.832 199.63 177.964 199.534 178.084C199.462 178.18 199.414 178.228 199.39 178.228H193.63L190.174 181.288L192.154 175.816Z" fill="url(#paint0_linear)"/>
<ellipse cx="93" cy="70.8958" rx="93" ry="70.8958" fill="white"/>
<path d="M145.221 117.089L158.322 103.256L169.024 141.545L133.965 129.934L145.221 117.089Z" fill="white"/>
<path d="M58.4995 31.6562C60.2212 25.6233 68.771 25.6233 70.4927 31.6562C71.7125 35.9303 76.1037 38.4656 80.4151 37.3849C86.5006 35.8595 90.7755 43.2638 86.4117 47.7713C83.3201 50.9648 83.3201 56.0352 86.4117 59.2287C90.7755 63.7362 86.5006 71.1405 80.4151 69.6151C76.1037 68.5344 71.7125 71.0697 70.4927 75.3438C68.771 81.3767 60.2212 81.3767 58.4995 75.3438C57.2797 71.0697 52.8885 68.5344 48.5771 69.6151C42.4916 71.1405 38.2167 63.7362 42.5805 59.2287C45.6721 56.0352 45.6721 50.9648 42.5805 47.7713C38.2167 43.2638 42.4916 35.8595 48.5771 37.3849C52.8885 38.4656 57.2797 35.9303 58.4995 31.6562Z" fill="#56CCF2" stroke="black" stroke-width="2"/>
<circle cx="64.9961" cy="53" r="9" fill="white" stroke="black" stroke-width="2"/>
<path d="M115.502 67.3862C117.235 61.3787 125.757 61.3787 127.49 67.3862C128.716 71.6333 133.123 74.1328 137.4 73.0724C143.477 71.5654 147.723 78.9203 143.436 83.3006C140.336 86.468 140.336 91.532 143.436 94.6994C147.723 99.0797 143.477 106.435 137.4 104.928C133.123 103.867 128.716 106.367 127.49 110.614C125.757 116.621 117.235 116.621 115.502 110.614C114.276 106.367 109.869 103.867 105.592 104.928C99.5151 106.435 95.2695 99.0797 99.5562 94.6994C102.656 91.532 102.656 86.468 99.5562 83.3006C95.2695 78.9203 99.5151 71.5654 105.592 73.0724C109.869 74.1328 114.276 71.6333 115.502 67.3862Z" fill="#56CCF2" stroke="black" stroke-width="2"/>
<circle cx="120.996" cy="89" r="9" fill="white" stroke="black" stroke-width="2"/>
<defs>
<linearGradient id="paint0_linear" x1="102" y1="164" x2="102" y2="195" gradientUnits="userSpaceOnUse">
<stop offset="0.625" stop-color="#AC1783"/>
<stop offset="1" stop-color="#3462DA"/>
</linearGradient>
</defs>
</svg>
